<svg width="49" height="44" viewBox="0 0 49 44" fill="none" xmlns="http://www.w3.org/2000/svg">
<path d="M42.5485 8.45111C41.5057 7.51428 40.2676 6.77113 38.9048 6.26409C37.5421 5.75706 36.0815 5.49609 34.6064 5.49609C33.1313 5.49609 31.6707 5.75706 30.308 6.26409C28.9452 6.77113 27.7071 7.51428 26.6643 8.45111L24.5002 10.3944L22.336 8.45111C20.2296 6.55967 17.3728 5.49707 14.3939 5.49707C11.4151 5.49707 8.5582 6.55967 6.45183 8.45111C4.34546 10.3425 3.16211 12.9079 3.16211 15.5828C3.16211 18.2577 4.34546 20.823 6.45183 22.7144L24.5002 38.9211L42.5485 22.7144C43.5918 21.7781 44.4194 20.6663 44.984 19.4426C45.5487 18.2189 45.8393 16.9073 45.8393 15.5828C45.8393 14.2582 45.5487 12.9466 44.984 11.723C44.4194 10.4993 43.5918 9.38749 42.5485 8.45111Z" stroke="#1E1E1E" stroke-width="4" stroke-linecap="round" stroke-linejoin="round"/>
</svg>
