<svg width="48" height="44" viewBox="0 0 48 44" fill="none" xmlns="http://www.w3.org/2000/svg">
<path d="M8 34.8327V31.166H12V18.3327C12 15.7966 12.8333 13.5507 14.5 11.5952C16.1667 9.60907 18.3333 8.31046 21 7.69935V6.41602C21 5.65213 21.2833 5.01046 21.85 4.49101C22.45 3.94101 23.1667 3.66602 24 3.66602C24.8333 3.66602 25.5333 3.94101 26.1 4.49101C26.7 5.01046 27 5.65213 27 6.41602V7.69935C29.6667 8.31046 31.8333 9.60907 33.5 11.5952C35.1667 13.5507 36 15.7966 36 18.3327V31.166H40V34.8327H8ZM24 40.3327C22.9 40.3327 21.95 39.9813 21.15 39.2785C20.3833 38.5452 20 37.6744 20 36.666H28C28 37.6744 27.6 38.5452 26.8 39.2785C26.0333 39.9813 25.1 40.3327 24 40.3327ZM16 31.166H32V18.3327C32 16.316 31.2167 14.5896 29.65 13.1535C28.0833 11.7174 26.2 10.9993 24 10.9993C21.8 10.9993 19.9167 11.7174 18.35 13.1535C16.7833 14.5896 16 16.316 16 18.3327V31.166Z" fill="#1D1B20"/>
</svg>
