<svg width="20" height="20" viewBox="0 0 20 20" fill="none" xmlns="http://www.w3.org/2000/svg">
<path d="M2.5 4.99935L5 1.66602H15L17.5 4.99935M2.5 4.99935V16.666C2.5 17.108 2.67559 17.532 2.98816 17.8445C3.30072 18.1571 3.72464 18.3327 4.16667 18.3327H15.8333C16.2754 18.3327 16.6993 18.1571 17.0118 17.8445C17.3244 17.532 17.5 17.108 17.5 16.666V4.99935M2.5 4.99935H17.5M13.3333 8.33268C13.3333 9.21674 12.9821 10.0646 12.357 10.6897C11.7319 11.3148 10.8841 11.666 10 11.666C9.11595 11.666 8.2681 11.3148 7.64298 10.6897C7.01786 10.0646 6.66667 9.21674 6.66667 8.33268" stroke="white" stroke-width="2" stroke-linecap="round" stroke-linejoin="round"/>
</svg>
